<svg xmlns="http://www.w3.org/2000/svg" viewBox="0 0 460 120" width="460" height="120">
  <defs>
    <linearGradient id="us-g" x1="0" y1="0" x2="0" y2="1">
      <stop offset="0%" stop-color="#34D399"/>
      <stop offset="100%" stop-color="#059669"/>
    </linearGradient>
  </defs>
  <g fill="url(#us-g)">
    <rect x="30" y="54" width="18" height="32" rx="3"/>
    <rect x="51" y="36" width="18" height="50" rx="3"/>
    <rect x="72" y="46" width="18" height="40" rx="3"/>
  </g>
  <g fill="#FFFFFF">
    <rect x="35" y="60" width="7" height="7" rx="1.5"/>
    <rect x="35" y="71" width="7" height="7" rx="1.5"/>
    <rect x="56" y="43" width="7" height="7" rx="1.5"/>
    <rect x="56" y="54" width="7" height="7" rx="1.5"/>
    <rect x="56" y="65" width="7" height="7" rx="1.5"/>
    <rect x="77" y="53" width="7" height="7" rx="1.5"/>
    <rect x="77" y="64" width="7" height="7" rx="1.5"/>
  </g>
  <rect x="26" y="88" width="68" height="5" rx="2.5" fill="#059669"/>
  <text x="120" y="72" font-family="'Segoe UI',Arial,sans-serif" font-size="36" font-weight="700" fill="#1D1D1F" letter-spacing="-1">Урбан Сервис</text>
</svg>
